<?xml version="1.0" encoding="UTF-8"?>
<svg width="96" height="96" viewBox="0 0 48 48" fill="none" xmlns="http://www.w3.org/2000/svg">
  <rect width="96" height="96" rx="24" fill="#E6F0FF" />
  <path d="M32 16H30V14H28V16H20V14H18V16H16C14.9 16 14 16.9 14 18V34C14 35.1 14.9 36 16 36H32C33.1 36 34 35.1 34 34V18C34 16.9 33.1 16 32 16ZM32 34H16V22H32V34ZM32 20H16V18H32V20Z" fill="#2563EB" />
  <path d="M24 24.5L21.5 27L20 25.5" stroke="#2563EB" stroke-width="2" stroke-linecap="round" stroke-linejoin="round" />
  <path d="M24 30.5L21.5 33L20 31.5" stroke="#2563EB" stroke-width="2" stroke-linecap="round" stroke-linejoin="round" />
  <path d="M28 24.5H26" stroke="#2563EB" stroke-width="2" stroke-linecap="round" stroke-linejoin="round" />
  <path d="M28 30.5H26" stroke="#2563EB" stroke-width="2" stroke-linecap="round" stroke-linejoin="round" />
  <circle cx="37" cy="15" r="3" fill="#3B82F6" />
  <path d="M37 12V14.5L38.5 16" stroke="white" stroke-width="1.5" stroke-linecap="round" stroke-linejoin="round" />
</svg>
