<?xml version="1.0" encoding="UTF-8"?>
<svg width="48" height="48" viewBox="0 0 48 48" fill="none" xmlns="http://www.w3.org/2000/svg">
  <rect width="48" height="48" rx="24" fill="#E6F0FF" />
  <path d="M32 16H30V14H28V16H20V14H18V16H16C14.9 16 14 16.9 14 18V34C14 35.1 14.9 36 16 36H32C33.1 36 34 35.1 34 34V18C34 16.9 33.1 16 32 16ZM32 34H16V22H32V34ZM32 20H16V18H32V20Z" fill="#2563EB" />
  <path d="M20 26H18V28H20V26Z" fill="#3B82F6" />
  <path d="M24 26H22V28H24V26Z" fill="#3B82F6" />
  <path d="M28 26H26V28H28V26Z" fill="#3B82F6" />
  <path d="M20 30H18V32H20V30Z" fill="#3B82F6" />
  <path d="M24 30H22V32H24V30Z" fill="#3B82F6" />
  <path d="M28 30H26V32H28V30Z" fill="#3B82F6" />
  <path d="M37 23C36.87 23 36.74 23.01 36.61 23.04C35.63 20.68 33.43 19 30.8 19C27.23 19 24.34 21.89 24.34 25.46C24.34 25.64 24.35 25.82 24.37 26H24C21.79 26 20 27.79 20 30C20 32.21 21.79 34 24 34H37C39.76 34 42 31.76 42 29C42 26.24 39.76 23 37 23Z" fill="#3B82F6" opacity="0.15" />
  <path d="M36.5 25.5V23.5H34.5" stroke="#3B82F6" stroke-width="1.5" stroke-linecap="round" stroke-linejoin="round" />
  <path d="M33.5 26.5V28.5H35.5" stroke="#3B82F6" stroke-width="1.5" stroke-linecap="round" stroke-linejoin="round" />
</svg>
