<?xml version="1.0" encoding="UTF-8"?>
<svg width="48" height="48" viewBox="0 0 48 48" fill="none" xmlns="http://www.w3.org/2000/svg">
  <rect width="48" height="48" rx="24" fill="#E6F0FF" />
  <path d="M36 16H12C10.9 16 10 16.9 10 18V30C10 31.1 10.9 32 12 32H36C37.1 32 38 31.1 38 30V18C38 16.9 37.1 16 36 16ZM36 30H12V18H36V30Z" fill="#2563EB" />
  <rect x="14" y="20" width="4" height="4" rx="1" fill="#3B82F6" />
  <rect x="20" y="20" width="4" height="4" rx="1" fill="#3B82F6" />
  <rect x="26" y="20" width="4" height="4" rx="1" fill="#3B82F6" />
  <rect x="32" y="20" width="4" height="4" rx="1" fill="#3B82F6" />
  <rect x="14" y="26" width="4" height="4" rx="1" fill="#3B82F6" />
  <rect x="20" y="26" width="14" height="4" rx="1" fill="#3B82F6" />
  <path d="M17 11L19 13M21 11L19 13M19 13V16" stroke="#3B82F6" stroke-width="1.5" stroke-linecap="round" stroke-linejoin="round" />
  <path d="M29 11L31 13M33 11L31 13M31 13V16" stroke="#3B82F6" stroke-width="1.5" stroke-linecap="round" stroke-linejoin="round" />
</svg>