<?xml version="1.0" encoding="UTF-8"?>
<svg width="48" height="48" viewBox="0 0 48 48" fill="none" xmlns="http://www.w3.org/2000/svg">
  <rect width="48" height="48" rx="24" fill="#E6F0FF" />
  <rect x="12" y="14" width="24" height="28" rx="2" fill="#2563EB" opacity="0.1" />
  <path d="M30 14H18C16.9 14 16 14.9 16 16V32C16 33.1 16.9 34 18 34H30C31.1 34 32 33.1 32 32V16C32 14.9 31.1 14 30 14ZM30 32H18V16H30V32Z" fill="#2563EB" />
  <path d="M19 20H29V22H19V20Z" fill="#3B82F6" />
  <path d="M19 24H29V26H19V24Z" fill="#3B82F6" />
  <path d="M19 28H24V30H19V28Z" fill="#3B82F6" />
  <path d="M34 19L36 21L38 19" stroke="#3B82F6" stroke-width="1.5" stroke-linecap="round" stroke-linejoin="round" />
  <path d="M36 21V27" stroke="#3B82F6" stroke-width="1.5" stroke-linecap="round" stroke-linejoin="round" />
  <path d="M34 29L36 27L38 29" stroke="#3B82F6" stroke-width="1.5" stroke-linecap="round" stroke-linejoin="round" />
</svg>
